<?xml version="1.0" encoding="UTF-8" standalone="no"?>
<svg width="128" height="128" viewBox="0 0 128 128" xmlns="http://www.w3.org/2000/svg">
  <rect width="128" height="128" rx="14" fill="#2D2D30"/>
  <circle cx="64" cy="64" r="50" fill="#3E3E42"/>
  <path fill="#64B5F6" d="M85.707 45.293C89.098 48.683 91 53.26 91 58C91 62.74 89.098 67.317 85.707 70.707L64 92.414L42.293 70.707C38.902 67.317 37 62.74 37 58C37 53.26 38.902 48.683 42.293 45.293C45.683 41.902 50.26 40 55 40C59.74 40 64.317 41.902 67.707 45.293L64 49L60.293 45.293C56.902 41.902 52.325 40 47.586 40C42.846 40 38.269 41.902 34.879 45.293C31.488 48.683 29.586 53.26 29.586 58C29.586 62.74 31.488 67.317 34.879 70.707L64 99.828L93.121 70.707C96.512 67.317 98.414 62.74 98.414 58C98.414 53.26 96.512 48.683 93.121 45.293C89.731 41.902 85.154 40 80.414 40C75.675 40 71.098 41.902 67.707 45.293L64 49L60.293 45.293C52.223 37.223 39.089 37.223 31.019 45.293C22.949 53.363 22.949 66.497 31.019 74.567L64 107.548L96.981 74.567C105.051 66.497 105.051 53.363 96.981 45.293C88.911 37.223 75.777 37.223 67.707 45.293" />
  <g transform="rotate(45, 64, 64)">
    <rect x="60" y="35" width="8" height="58" rx="4" fill="#FFFFFF"/>
    <rect x="35" y="60" width="58" height="8" rx="4" fill="#FFFFFF"/>
  </g>
</svg> 