<svg width="24" height="24" viewBox="0 0 24 24" xmlns="http://www.w3.org/2000/svg">
  <path fill="#C5C5C5" d="M21.007 8.222C20.736 7.511 20.31 6.879 19.764 6.381C19.209 5.877 18.545 5.539 17.825 5.391C17.116 5.241 16.391 5.276 15.697 5.491C15.003 5.707 14.367 6.096 13.856 6.624C13.542 6.991 13.285 7.406 13.097 7.853H8C7.47 7.853 6.961 8.064 6.586 8.439C6.211 8.814 6 9.323 6 9.853V17.5C6 17.9596 6.23705 18.3999 6.6585 18.7114C7.07996 19.023 7.63913 19.0889 8.1194 18.8929L11.8 17.0929L15.8929 18.9782C16.1791 19.0978 16.4923 19.1412 16.8 19.103C17.1077 19.0649 17.4018 18.946 17.6585 18.7586C17.915 18.5711 18.1267 18.32 18.2742 18.0269C18.4218 17.7337 18.5 17.4072 18.5 17.076V9.853C18.5 9.648 18.526 9.446 18.575 9.251C18.9708 7.864 20.1803 7.01 21.007 8.222ZM16.5 16.2825L13.4627 14.8705C13.1693 14.7241 12.8373 14.6489 12.5 14.6513C12.1627 14.6489 11.8307 14.7241 11.5373 14.8705L9 16.0415V9.853C9 9.588 9.211 9.376 9.477 9.376H13C13.006 10.3736 13.424 11.3312 14.159 12.0422C14.8939 12.7533 15.8829 13.1286 16.9 13.0887C16.9 13.0929 16.5 16.2825 16.5 16.2825Z" />
  <circle fill="#C5C5C5" cx="17" cy="7.6" r="1.5" />
</svg> 